<svg width="26" height="26" viewBox="0 0 26 26" fill="none" xmlns="http://www.w3.org/2000/svg">
<path d="M25.4996 11.7499C25.5031 10.8688 25.2737 10.0025 24.8347 9.23858C24.3957 8.4747 23.7626 7.84038 22.9996 7.39985C23.0184 7.1836 23.0184 6.96611 22.9996 6.74986C22.9996 5.75529 22.6045 4.80147 21.9013 4.0982C21.198 3.39494 20.2442 2.99986 19.2496 2.99986H19.0246C18.8165 2.42275 18.4699 1.90552 18.0153 1.49354C17.5607 1.08156 17.012 0.787398 16.4172 0.63686C15.8225 0.486322 15.1999 0.484003 14.604 0.630106C14.0082 0.776208 13.4573 1.06627 12.9996 1.47485C12.542 1.06627 11.9911 0.776208 11.3952 0.630106C10.7994 0.484003 10.1768 0.486322 9.58201 0.63686C8.98726 0.787398 8.43853 1.08156 7.98394 1.49354C7.52934 1.90552 7.18277 2.42275 6.97461 2.99986H6.74961C5.75505 2.99986 4.80122 3.39494 4.09796 4.0982C3.3947 4.80147 2.99961 5.75529 2.99961 6.74986C2.9808 6.96611 2.9808 7.1836 2.99961 7.39985C2.29019 7.80085 1.68953 8.36916 1.24991 9.05532C0.810301 9.74148 0.545062 10.5247 0.477285 11.3368C0.409509 12.1489 0.541249 12.9652 0.861039 13.7148C1.18083 14.4643 1.67897 15.1243 2.31211 15.6374C1.90245 16.4014 1.69851 17.2589 1.7203 18.1256C1.74208 18.9923 1.98886 19.8384 2.43639 20.581C2.88393 21.3235 3.51685 21.9369 4.27303 22.361C5.02921 22.7851 5.88266 23.0052 6.74961 22.9999H6.97461C7.18277 23.577 7.52934 24.0942 7.98394 24.5062C8.43853 24.9182 8.98726 25.2123 9.58201 25.3629C10.1768 25.5134 10.7994 25.5157 11.3952 25.3696C11.9911 25.2235 12.542 24.9334 12.9996 24.5249C13.4573 24.9334 14.0082 25.2235 14.604 25.3696C15.1999 25.5157 15.8225 25.5134 16.4172 25.3629C17.012 25.2123 17.5607 24.9182 18.0153 24.5062C18.4699 24.0942 18.8165 23.577 19.0246 22.9999H19.2496C20.1113 22.9944 20.9569 22.7664 21.7045 22.3379C22.4521 21.9094 23.0762 21.2949 23.5164 20.5542C23.9566 19.8134 24.1978 18.9715 24.2168 18.11C24.2358 17.2485 24.0318 16.3968 23.6246 15.6374C24.2077 15.1706 24.6787 14.5791 25.0032 13.9063C25.3276 13.2336 25.4973 12.4967 25.4996 11.7499ZM11.7496 8.68736C11.4774 8.53164 11.1931 8.39788 10.8996 8.28735C10.5847 8.18127 10.2405 8.20464 9.94277 8.35232C9.64505 8.50001 9.4182 8.75991 9.31211 9.07485C9.20603 9.3898 9.2294 9.73399 9.37708 10.0317C9.52477 10.3294 9.78467 10.5563 10.0996 10.6624C10.5808 10.8363 10.997 11.1537 11.2921 11.5717C11.5871 11.9897 11.7468 12.4882 11.7496 12.9999V14.9374C11.4774 14.7816 11.1931 14.6479 10.8996 14.5374C10.5847 14.4313 10.2405 14.4546 9.94277 14.6023C9.64505 14.75 9.4182 15.0099 9.31211 15.3249C9.20603 15.6398 9.2294 15.984 9.37708 16.2817C9.52477 16.5794 9.78467 16.8063 10.0996 16.9124C10.5808 17.0863 10.997 17.4037 11.2921 17.8217C11.5871 18.2397 11.7468 18.7382 11.7496 19.2499V21.7499C11.7496 22.0814 11.6179 22.3993 11.3835 22.6337C11.1491 22.8682 10.8311 22.9999 10.4996 22.9999C10.2578 22.9983 10.0216 22.9266 9.8197 22.7935C9.61779 22.6603 9.45884 22.4715 9.36211 22.2499C9.57171 22.1269 9.77222 21.989 9.96211 21.8374C10.0885 21.7323 10.193 21.6034 10.2695 21.4579C10.3461 21.3125 10.3933 21.1534 10.4084 20.9898C10.4235 20.8261 10.4062 20.6611 10.3575 20.5041C10.3088 20.3471 10.2297 20.2013 10.1246 20.0749C10.0196 19.9485 9.89063 19.844 9.7452 19.7674C9.59977 19.6908 9.44068 19.6437 9.27702 19.6286C9.11335 19.6135 8.94832 19.6308 8.79134 19.6795C8.63436 19.7282 8.48851 19.8073 8.36211 19.9124C7.91077 20.2923 7.3396 20.5004 6.74961 20.4999C6.08657 20.4999 5.45069 20.2365 4.98185 19.7676C4.51301 19.2988 4.24961 18.6629 4.24961 17.9999C4.25559 17.5293 4.39424 17.0701 4.64961 16.6749C4.93014 16.7252 5.21461 16.7503 5.49961 16.7499C5.83113 16.7499 6.14908 16.6182 6.3835 16.3837C6.61792 16.1493 6.74961 15.8314 6.74961 15.4999C6.74961 15.1683 6.61792 14.8504 6.3835 14.616C6.14908 14.3816 5.83113 14.2499 5.49961 14.2499C5.20435 14.2516 4.91152 14.1964 4.63711 14.0874C4.18754 13.9252 3.79387 13.6376 3.50273 13.2586C3.21158 12.8796 3.03518 12.4251 2.9944 11.9489C2.95362 11.4728 3.05019 10.9949 3.27265 10.5719C3.49511 10.1489 3.83416 9.79857 4.24961 9.56236C4.42724 9.72578 4.61974 9.87225 4.82461 9.99986C5.11304 10.1656 5.45549 10.21 5.77665 10.1233C6.09781 10.0365 6.37135 9.82578 6.53711 9.53735C6.70287 9.24893 6.74727 8.90647 6.66053 8.58532C6.5738 8.26416 6.36304 7.99062 6.07461 7.82485C5.89865 7.72778 5.75189 7.58535 5.64961 7.41236C5.53405 7.21166 5.48177 6.98075 5.49961 6.74986C5.49961 6.41833 5.63131 6.10039 5.86573 5.86597C6.10015 5.63155 6.41809 5.49986 6.74961 5.49986C6.83669 5.48771 6.92503 5.48771 7.01211 5.49986C7.07829 5.70069 7.15763 5.89695 7.24961 6.08735C7.33128 6.23059 7.44047 6.35625 7.5709 6.45711C7.70134 6.55796 7.85043 6.63202 8.00961 6.67501C8.16878 6.718 8.33489 6.72907 8.49836 6.70759C8.66184 6.68611 8.81945 6.6325 8.96211 6.54986C9.23924 6.38311 9.44096 6.11545 9.52487 5.8031C9.60879 5.49075 9.56837 5.15803 9.41211 4.87486C9.30723 4.68311 9.2514 4.4684 9.24961 4.24986C9.24961 3.91833 9.38131 3.60039 9.61573 3.36597C9.85015 3.13155 10.1681 2.99985 10.4996 2.99986C10.8311 2.99985 11.1491 3.13155 11.3835 3.36597C11.6179 3.60039 11.7496 3.91833 11.7496 4.24986V8.68736ZM21.3621 14.0874C21.0877 14.1964 20.7949 14.2516 20.4996 14.2499C20.1681 14.2499 19.8501 14.3816 19.6157 14.616C19.3813 14.8504 19.2496 15.1683 19.2496 15.4999C19.2496 15.8314 19.3813 16.1493 19.6157 16.3837C19.8501 16.6182 20.1681 16.7499 20.4996 16.7499C20.7846 16.7503 21.0691 16.7252 21.3496 16.6749C21.605 17.0701 21.7436 17.5293 21.7496 17.9999C21.7496 18.6629 21.4862 19.2988 21.0174 19.7676C20.5485 20.2365 19.9127 20.4999 19.2496 20.4999C18.6596 20.5004 18.0884 20.2923 17.6371 19.9124C17.3818 19.7002 17.0527 19.5981 16.7222 19.6286C16.3917 19.6591 16.0868 19.8196 15.8746 20.0749C15.6624 20.3301 15.5604 20.6592 15.5908 20.9898C15.6213 21.3203 15.7818 21.6252 16.0371 21.8374C16.227 21.989 16.4275 22.1269 16.6371 22.2499C16.5404 22.4715 16.3814 22.6603 16.1795 22.7935C15.9776 22.9266 15.7414 22.9983 15.4996 22.9999C15.1681 22.9999 14.8501 22.8682 14.6157 22.6337C14.3813 22.3993 14.2496 22.0814 14.2496 21.7499V19.2499C14.2524 18.7382 14.4121 18.2397 14.7072 17.8217C15.0022 17.4037 15.4184 17.0863 15.8996 16.9124C16.2146 16.8063 16.4745 16.5794 16.6221 16.2817C16.7698 15.984 16.7932 15.6398 16.6871 15.3249C16.581 15.0099 16.3542 14.75 16.0565 14.6023C15.7587 14.4546 15.4146 14.4313 15.0996 14.5374C14.8061 14.6479 14.5219 14.7816 14.2496 14.9374V12.9999C14.2524 12.4882 14.4121 11.9897 14.7072 11.5717C15.0022 11.1537 15.4184 10.8363 15.8996 10.6624C16.0556 10.6098 16.1996 10.5271 16.3236 10.4189C16.4476 10.3107 16.549 10.1791 16.6221 10.0317C16.6953 9.88429 16.7386 9.72392 16.7498 9.55974C16.7609 9.39556 16.7396 9.2308 16.6871 9.07485C16.6346 8.91891 16.5519 8.77484 16.4436 8.65087C16.3354 8.52689 16.2039 8.42545 16.0565 8.35232C15.909 8.2792 15.7487 8.23582 15.5845 8.22467C15.4203 8.21353 15.2556 8.23483 15.0996 8.28735C14.8061 8.39788 14.5219 8.53164 14.2496 8.68736V4.24986C14.2496 3.91833 14.3813 3.60039 14.6157 3.36597C14.8501 3.13155 15.1681 2.99985 15.4996 2.99986C15.8311 2.99985 16.1491 3.13155 16.3835 3.36597C16.6179 3.60039 16.7496 3.91833 16.7496 4.24986C16.7478 4.4684 16.692 4.68311 16.5871 4.87486C16.5039 5.01678 16.4496 5.17372 16.4272 5.33668C16.4048 5.49964 16.4148 5.66542 16.4566 5.82452C16.4984 5.98361 16.5712 6.13289 16.6708 6.26379C16.7705 6.3947 16.8949 6.50465 17.0371 6.58735C17.1798 6.67 17.3374 6.72361 17.5009 6.74509C17.6643 6.76657 17.8304 6.7555 17.9896 6.71251C18.1488 6.66952 18.2979 6.59546 18.4283 6.49461C18.5588 6.39375 18.6679 6.26809 18.7496 6.12486C18.8432 5.92228 18.9225 5.71344 18.9871 5.49986C19.0742 5.48771 19.1625 5.48771 19.2496 5.49986C19.5811 5.49986 19.8991 5.63155 20.1335 5.86597C20.3679 6.10039 20.4996 6.41833 20.4996 6.74986C20.4977 6.9949 20.4238 7.23397 20.2871 7.43736C20.1849 7.59956 20.0429 7.73295 19.8746 7.82485C19.5862 7.99062 19.3754 8.26416 19.2887 8.58532C19.202 8.90647 19.2463 9.24893 19.4121 9.53735C19.5779 9.82578 19.8514 10.0365 20.1726 10.1233C20.4937 10.21 20.8362 10.1656 21.1246 9.99986C21.349 9.87848 21.5588 9.73168 21.7496 9.56236C22.1665 9.7944 22.5083 10.1409 22.7346 10.5609C22.9609 10.9809 23.0623 11.4569 23.0268 11.9327C22.9913 12.4085 22.8204 12.8642 22.5343 13.246C22.2482 13.6278 21.8588 13.9197 21.4121 14.0874H21.3621Z" fill="black"/>
</svg>
