<svg width="26" height="26" viewBox="0 0 26 26" fill="none" xmlns="http://www.w3.org/2000/svg">
<path d="M24.2505 3.51249L25.138 2.63749C25.3734 2.40211 25.5056 2.08286 25.5056 1.74999C25.5056 1.41711 25.3734 1.09787 25.138 0.862487C24.9026 0.627108 24.5834 0.494873 24.2505 0.494873C23.9176 0.494873 23.5984 0.627108 23.363 0.862487L21.613 2.62499L18.0755 6.16249L10.188 14.0375C8.89554 13.1848 7.33257 12.8422 5.80195 13.0761C4.27132 13.31 2.88201 14.1038 1.90322 15.3035C0.924429 16.5033 0.425847 18.0237 0.504083 19.5702C0.582318 21.1166 1.2318 22.5789 2.32668 23.6738C3.42156 24.7687 4.88389 25.4182 6.43031 25.4964C7.97673 25.5746 9.49713 25.076 10.6969 24.0973C11.8967 23.1185 12.6905 21.7292 12.9244 20.1985C13.1583 18.6679 12.8157 17.1049 11.963 15.8125L18.9505 8.81249L21.6005 11.475C21.717 11.5907 21.8552 11.6824 22.0072 11.7447C22.1592 11.807 22.3219 11.8388 22.4862 11.8382C22.6504 11.8376 22.8129 11.8047 22.9644 11.7413C23.116 11.6779 23.2535 11.5853 23.3692 11.4687C23.485 11.3522 23.5766 11.214 23.6389 11.062C23.7012 10.9101 23.733 10.7473 23.7324 10.5831C23.7319 10.4188 23.6989 10.2563 23.6355 10.1048C23.5721 9.95326 23.4795 9.81571 23.363 9.69999L20.713 7.04999L22.488 5.28749L23.363 6.16249C23.4787 6.27904 23.6163 6.37165 23.7678 6.43504C23.9193 6.49843 24.0818 6.53135 24.2461 6.53193C24.4103 6.53251 24.5731 6.50074 24.725 6.43842C24.877 6.3761 25.0152 6.28446 25.1317 6.16874C25.2483 6.05301 25.3409 5.91546 25.4043 5.76394C25.4677 5.61242 25.5006 5.4499 25.5012 5.28566C25.5018 5.12141 25.47 4.95866 25.4077 4.8067C25.3454 4.65474 25.2537 4.51654 25.138 4.39999L24.2505 3.51249ZM6.75049 23C6.00881 23 5.28378 22.7801 4.6671 22.368C4.05041 21.9559 3.56977 21.3703 3.28594 20.685C3.00211 19.9998 2.92785 19.2458 3.07254 18.5184C3.21724 17.791 3.57439 17.1228 4.09884 16.5983C4.62328 16.0739 5.29147 15.7167 6.0189 15.572C6.74633 15.4273 7.50033 15.5016 8.18555 15.7854C8.87077 16.0693 9.45644 16.5499 9.8685 17.1666C10.2806 17.7833 10.5005 18.5083 10.5005 19.25C10.5005 20.2445 10.1054 21.1984 9.40214 21.9016C8.69888 22.6049 7.74505 23 6.75049 23Z" fill="#222528"/>
</svg>
