<svg width="26" height="26" viewBox="0 0 26 26" fill="none" xmlns="http://www.w3.org/2000/svg">
<path d="M10.5 10.5C10.5 10.2528 10.4267 10.0111 10.2893 9.80554C10.152 9.59998 9.95677 9.43976 9.72836 9.34515C9.49995 9.25054 9.24862 9.22579 9.00614 9.27402C8.76367 9.32225 8.54094 9.4413 8.36612 9.61612C8.19131 9.79093 8.07226 10.0137 8.02402 10.2561C7.97579 10.4986 8.00055 10.7499 8.09516 10.9784C8.18977 11.2068 8.34998 11.402 8.55554 11.5393C8.7611 11.6767 9.00278 11.75 9.25001 11.75C9.58153 11.75 9.89947 11.6183 10.1339 11.3839C10.3683 11.1495 10.5 10.8315 10.5 10.5ZM16.125 15.575C15.9831 15.4918 15.8261 15.4375 15.6632 15.4151C15.5002 15.3927 15.3344 15.4027 15.1753 15.4445C15.0163 15.4863 14.867 15.5591 14.7361 15.6587C14.6052 15.7583 14.4952 15.8828 14.4125 16.025C14.2706 16.2745 14.0651 16.4819 13.817 16.6263C13.5689 16.7706 13.287 16.8466 13 16.8466C12.713 16.8466 12.4311 16.7706 12.183 16.6263C11.9349 16.4819 11.7294 16.2745 11.5875 16.025C11.5048 15.8828 11.3948 15.7583 11.2639 15.6587C11.133 15.5591 10.9838 15.4863 10.8247 15.4445C10.6656 15.4027 10.4998 15.3927 10.3368 15.4151C10.1739 15.4375 10.0169 15.4918 9.87501 15.575C9.58909 15.7399 9.38 16.0112 9.29335 16.3297C9.20671 16.6482 9.24954 16.988 9.41251 17.275C9.77506 17.906 10.2976 18.4302 10.9275 18.7948C11.5574 19.1593 12.2723 19.3513 13 19.3513C13.7278 19.3513 14.4426 19.1593 15.0725 18.7948C15.7024 18.4302 16.2249 17.906 16.5875 17.275C16.7505 16.988 16.7933 16.6482 16.7067 16.3297C16.62 16.0112 16.4109 15.7399 16.125 15.575ZM16.75 9.25C16.5028 9.25 16.2611 9.32331 16.0555 9.46066C15.85 9.59802 15.6898 9.79324 15.5952 10.0216C15.5005 10.2501 15.4758 10.5014 15.524 10.7439C15.5723 10.9863 15.6913 11.2091 15.8661 11.3839C16.0409 11.5587 16.2637 11.6778 16.5061 11.726C16.7486 11.7742 17 11.7495 17.2284 11.6549C17.4568 11.5602 17.652 11.4 17.7893 11.1945C17.9267 10.9889 18 10.7472 18 10.5C18 10.1685 17.8683 9.85054 17.6339 9.61612C17.3995 9.3817 17.0815 9.25 16.75 9.25ZM13 0.5C10.5277 0.5 8.11099 1.23311 6.05538 2.60663C3.99976 3.98015 2.39761 5.93238 1.45151 8.21646C0.505416 10.5005 0.257874 13.0139 0.74019 15.4386C1.2225 17.8634 2.41301 20.0907 4.16117 21.8388C5.90933 23.587 8.13661 24.7775 10.5614 25.2598C12.9861 25.7421 15.4995 25.4946 17.7836 24.5485C20.0676 23.6024 22.0199 22.0002 23.3934 19.9446C24.7669 17.889 25.5 15.4723 25.5 13C25.5 11.3585 25.1767 9.73303 24.5485 8.21646C23.9203 6.69989 22.9996 5.3219 21.8388 4.16117C20.6781 3.00043 19.3001 2.07969 17.7836 1.45151C16.267 0.823322 14.6415 0.5 13 0.5ZM13 23C10.6716 23.0101 8.41276 22.2073 6.6129 20.7302C4.81304 19.2531 3.58503 17.1942 3.14065 14.9086C2.69627 12.623 3.06338 10.254 4.17867 8.21013C5.29395 6.16624 7.0875 4.57559 9.25001 3.7125C9.23715 3.89144 9.23715 4.07106 9.25001 4.25C9.25001 5.24456 9.64509 6.19839 10.3484 6.90165C11.0516 7.60491 12.0054 8 13 8C13.3315 8 13.6495 7.8683 13.8839 7.63388C14.1183 7.39946 14.25 7.08152 14.25 6.75C14.25 6.41848 14.1183 6.10054 13.8839 5.86612C13.6495 5.6317 13.3315 5.5 13 5.5C12.6685 5.5 12.3505 5.3683 12.1161 5.13388C11.8817 4.89946 11.75 4.58152 11.75 4.25C11.75 3.91848 11.8817 3.60054 12.1161 3.36612C12.3505 3.1317 12.6685 3 13 3C15.6522 3 18.1957 4.05357 20.0711 5.92893C21.9464 7.8043 23 10.3478 23 13C23 15.6522 21.9464 18.1957 20.0711 20.0711C18.1957 21.9464 15.6522 23 13 23Z" fill="black"/>
</svg>
