<svg width="20" height="28" viewBox="0 0 20 28" fill="none" xmlns="http://www.w3.org/2000/svg">
<path d="M16.3624 2.52515C15.2128 1.57963 13.8666 0.902683 12.422 0.543701C10.9774 0.18472 9.47093 0.152758 8.01242 0.450146C6.0704 0.842424 4.28866 1.80274 2.89328 3.20925C1.4979 4.61576 0.551767 6.40506 0.174927 8.35015C-0.100264 9.80855 -0.0502578 11.3097 0.32138 12.7466C0.693017 14.1834 1.37713 15.5206 2.32493 16.6626C3.20453 17.6552 3.70872 18.9245 3.74993 20.2501V24.0001C3.74993 24.9947 4.14501 25.9485 4.84828 26.6518C5.55154 27.3551 6.50536 27.7501 7.49993 27.7501H12.4999C13.4945 27.7501 14.4483 27.3551 15.1516 26.6518C15.8548 25.9485 16.2499 24.9947 16.2499 24.0001V20.4876C16.2919 19.0241 16.8296 17.6182 17.7749 16.5001C19.4313 14.4511 20.2121 11.8312 19.9476 9.20968C19.6831 6.58819 18.3947 4.17701 16.3624 2.50015V2.52515ZM13.7499 24.0001C13.7499 24.3317 13.6182 24.6496 13.3838 24.884C13.1494 25.1185 12.8314 25.2501 12.4999 25.2501H7.49993C7.1684 25.2501 6.85046 25.1185 6.61604 24.884C6.38162 24.6496 6.24993 24.3317 6.24993 24.0001V22.7501H13.7499V24.0001ZM15.8374 14.9501C14.5806 16.4409 13.8473 18.3027 13.7499 20.2501H11.2499V16.5001C11.2499 16.1686 11.1182 15.8507 10.8838 15.6163C10.6494 15.3818 10.3314 15.2501 9.99992 15.2501C9.6684 15.2501 9.35046 15.3818 9.11604 15.6163C8.88162 15.8507 8.74992 16.1686 8.74992 16.5001V20.2501H6.24993C6.21694 18.3353 5.50861 16.4936 4.24993 15.0501C3.41948 14.0551 2.86104 12.8619 2.62906 11.5868C2.39709 10.3117 2.49949 8.99829 2.92629 7.77456C3.35308 6.55083 4.0897 5.45858 5.06433 4.6043C6.03895 3.75003 7.21832 3.1629 8.48742 2.90015C9.57812 2.67558 10.7051 2.6967 11.7866 2.96198C12.8681 3.22727 13.877 3.73005 14.74 4.43384C15.603 5.13762 16.2984 6.02474 16.7758 7.03079C17.2532 8.03684 17.5005 9.13658 17.4999 10.2501C17.5092 11.9625 16.9213 13.6245 15.8374 14.9501Z" fill="#222528"/>
</svg>
