<svg width="20" height="16" viewBox="0 0 20 16" fill="none" xmlns="http://www.w3.org/2000/svg">
<path fill-rule="evenodd" clip-rule="evenodd" d="M0 2C0 0.89543 0.89543 0 2 0H18C19.1046 0 20 0.89543 20 2V14C20 15.1046 19.1046 16 18 16H2C0.89543 16 0 15.1046 0 14V2ZM18 2H2V14H18V2Z" fill="black"/>
<path fill-rule="evenodd" clip-rule="evenodd" d="M0.146862 1.97845C0.43485 1.50719 1.05034 1.35863 1.52159 1.64662L10.0001 6.82795L18.4787 1.64662C18.9499 1.35863 19.5654 1.50719 19.8534 1.97845C20.1414 2.4497 19.9928 3.06519 19.5216 3.35318L10.0001 9.17184L0.478693 3.35318C0.00743887 3.06519 -0.141127 2.4497 0.146862 1.97845Z" fill="black"/>
</svg>
