<svg width="17" height="20" viewBox="0 0 17 20" fill="none" xmlns="http://www.w3.org/2000/svg">
<path d="M6.74414 0.5C5.51367 0.5 4.5 1.51367 4.5 2.74414V3.5H0V5H1.5V17.75C1.5 18.9863 2.51367 20 3.75 20H12.75C13.9863 20 15 18.9863 15 17.75V5H16.5V3.5H12V2.74414C12 1.51367 10.9863 0.5 9.75586 0.5H6.74414ZM6.74414 2H9.75586C10.1777 2 10.5 2.32227 10.5 2.74414V3.5H6V2.74414C6 2.32227 6.32227 2 6.74414 2ZM3 5H13.5V17.75C13.5 18.1719 13.1719 18.5 12.75 18.5H3.75C3.32812 18.5 3 18.1719 3 17.75V5ZM4.5 6.5V17H6V6.5H4.5ZM7.5 6.5V17H9V6.5H7.5ZM10.5 6.5V17H12V6.5H10.5Z" fill="black"/>
</svg>
