<svg width="14" height="8" viewBox="0 0 14 8" fill="none" xmlns="http://www.w3.org/2000/svg">
<path d="M6.11213 0.462387L0.812131 5.76239C0.69497 5.87859 0.601977 6.01684 0.538516 6.16917C0.475055 6.32149 0.442383 6.48487 0.442383 6.64989C0.442383 6.8149 0.475055 6.97829 0.538516 7.13061C0.601977 7.28293 0.69497 7.42118 0.812131 7.53739C1.04633 7.7702 1.36315 7.90088 1.69338 7.90088C2.02361 7.90088 2.34043 7.7702 2.57463 7.53739L6.99963 3.11239L11.4246 7.53739C11.6588 7.7702 11.9756 7.90088 12.3059 7.90088C12.6361 7.90088 12.9529 7.7702 13.1871 7.53739C13.303 7.42059 13.3946 7.28207 13.4568 7.12977C13.519 6.97747 13.5506 6.8144 13.5496 6.64989C13.5506 6.48538 13.519 6.3223 13.4568 6.17C13.3946 6.01771 13.303 5.87919 13.1871 5.76239L7.88713 0.462387C7.77093 0.345227 7.63267 0.252234 7.48035 0.188773C7.32803 0.125312 7.16464 0.092639 6.99963 0.092639C6.83461 0.092639 6.67123 0.125312 6.51891 0.188773C6.36658 0.252234 6.22833 0.345227 6.11213 0.462387Z" fill="#222528"/>
</svg>
