<svg width="8" height="14" viewBox="0 0 8 14" fill="none" xmlns="http://www.w3.org/2000/svg">
<path d="M3.11252 6.99987L7.53752 2.57487C7.77033 2.34067 7.90101 2.02386 7.90101 1.69362C7.90101 1.36339 7.77033 1.04658 7.53752 0.812375C7.42131 0.695214 7.28306 0.602221 7.13074 0.53876C6.97842 0.475299 6.81503 0.442627 6.65002 0.442627C6.485 0.442627 6.32162 0.475299 6.1693 0.53876C6.01697 0.602221 5.87872 0.695214 5.76252 0.812375L0.462521 6.11237C0.345361 6.22858 0.252368 6.36683 0.188907 6.51915C0.125447 6.67148 0.0927734 6.83486 0.0927734 6.99987C0.0927734 7.16489 0.125447 7.32827 0.188907 7.4806C0.252368 7.63292 0.345361 7.77117 0.462521 7.88737L5.76252 13.2499C5.87932 13.3657 6.01784 13.4574 6.17014 13.5196C6.32243 13.5818 6.48551 13.6133 6.65002 13.6124C6.81453 13.6133 6.9776 13.5818 7.1299 13.5196C7.2822 13.4574 7.42072 13.3657 7.53752 13.2499C7.77033 13.0157 7.90101 12.6989 7.90101 12.3686C7.90101 12.0384 7.77033 11.7216 7.53752 11.4874L3.11252 6.99987Z" fill="#222528"/>
</svg>
