<svg width="8" height="14" viewBox="0 0 8 14" fill="none" xmlns="http://www.w3.org/2000/svg">
<path d="M7.53712 6.11237L2.23712 0.812375C2.12092 0.695214 1.98267 0.602221 1.83034 0.53876C1.67802 0.475299 1.51464 0.442627 1.34962 0.442627C1.18461 0.442627 1.02123 0.475299 0.868903 0.53876C0.716578 0.602221 0.578327 0.695214 0.462123 0.812375C0.22931 1.04658 0.0986328 1.36339 0.0986328 1.69362C0.0986328 2.02386 0.22931 2.34067 0.462123 2.57487L4.88712 6.99987L0.462123 11.4249C0.22931 11.6591 0.0986328 11.9759 0.0986328 12.3061C0.0986328 12.6364 0.22931 12.9532 0.462123 13.1874C0.578924 13.3032 0.717444 13.3949 0.869741 13.4571C1.02204 13.5193 1.18512 13.5508 1.34962 13.5499C1.51413 13.5508 1.67721 13.5193 1.82951 13.4571C1.9818 13.3949 2.12032 13.3032 2.23712 13.1874L7.53712 7.88737C7.65428 7.77117 7.74728 7.63292 7.81074 7.48059C7.8742 7.32827 7.90687 7.16489 7.90687 6.99987C7.90687 6.83486 7.8742 6.67148 7.81074 6.51915C7.74728 6.36683 7.65428 6.22858 7.53712 6.11237Z" fill="#222528"/>
</svg>
