<svg width="14" height="8" viewBox="0 0 14 8" fill="none" xmlns="http://www.w3.org/2000/svg">
<path d="M6.99963 4.88748L2.57463 0.462481C2.34043 0.229668 2.02361 0.0989914 1.69338 0.0989914C1.36315 0.0989914 1.04633 0.229668 0.812131 0.462481C0.69497 0.578685 0.601977 0.716937 0.538516 0.869261C0.475055 1.02158 0.442383 1.18497 0.442383 1.34998C0.442383 1.515 0.475055 1.67838 0.538516 1.8307C0.601977 1.98303 0.69497 2.12128 0.812131 2.23748L6.11213 7.53748C6.22833 7.65464 6.36659 7.74763 6.51891 7.81109C6.67123 7.87455 6.83462 7.90723 6.99963 7.90723C7.16465 7.90723 7.32803 7.87455 7.48035 7.81109C7.63268 7.74763 7.77093 7.65464 7.88713 7.53748L13.2496 2.23748C13.3655 2.12068 13.4571 1.98216 13.5193 1.82986C13.5815 1.67757 13.6131 1.51449 13.6121 1.34998C13.6131 1.18547 13.5815 1.0224 13.5193 0.870099C13.4571 0.717802 13.3655 0.579282 13.2496 0.462481C13.0154 0.229668 12.6986 0.0989914 12.3684 0.0989914C12.0381 0.0989914 11.7213 0.229668 11.4871 0.462481L6.99963 4.88748Z" fill="#222528"/>
</svg>
