<svg width="26" height="26" viewBox="0 0 26 26" fill="none" xmlns="http://www.w3.org/2000/svg">
<path d="M13.0004 0.5C10.91 0.502138 8.85362 1.02846 7.01928 2.03079C5.18493 3.03313 3.63124 4.47948 2.50037 6.2375C0.909828 8.73194 0.255553 11.7097 0.653901 14.6411C1.05225 17.5726 2.4774 20.2677 4.67591 22.2473C6.87441 24.2268 9.70376 25.3625 12.6608 25.4522C15.6178 25.542 18.5108 24.5801 20.8254 22.7375C22.8398 21.1161 24.3018 18.9098 25.0099 16.4227C25.7179 13.9356 25.6372 11.2901 24.7789 8.85084C23.9205 6.41154 22.3268 4.29848 20.2173 2.80285C18.1077 1.30722 15.5863 0.502646 13.0004 0.5ZM15.5004 3.325C17.2277 3.77211 18.8039 4.67322 20.0655 5.93486C21.3272 7.1965 22.2283 8.77271 22.6754 10.5C20.5854 10.5589 18.5454 11.1528 16.7504 12.225C15.849 11.2025 14.8436 10.2767 13.7504 9.4625C14.8518 7.6012 15.4545 5.48728 15.5004 3.325ZM13.0004 3C12.9963 4.79378 12.5036 6.55257 11.5754 8.0875C11.3879 7.9875 11.2129 7.875 11.0254 7.7875C9.41583 6.93824 7.69479 6.31967 5.91287 5.95C6.84168 5.01565 7.94596 4.27404 9.16226 3.76779C10.3786 3.26153 11.6829 3.0006 13.0004 3ZM4.25037 8.2C6.2109 8.47235 8.10964 9.0813 9.86287 10L10.0254 10.1C9.10276 11.0217 8.00733 11.7524 6.80185 12.25C5.59636 12.7476 4.30453 13.0025 3.00037 13C3.00732 11.3204 3.43721 9.66964 4.25037 8.2ZM10.5004 22.675C8.77308 22.2279 7.19687 21.3268 5.93523 20.0651C4.67359 18.8035 3.77249 17.2273 3.32537 15.5C4.99494 15.4629 6.63973 15.0883 8.16068 14.3987C9.68164 13.7092 11.0473 12.7189 12.1754 11.4875C13.079 12.1555 13.9162 12.909 14.6754 13.7375C13.4096 14.8661 12.3867 16.2405 11.6689 17.777C10.9512 19.3135 10.5536 20.98 10.5004 22.675ZM13.0004 23C13.0031 21.6267 13.2886 20.2687 13.8391 19.0106C14.3897 17.7525 15.1935 16.6213 16.2004 15.6875C16.2754 15.7875 16.3504 15.875 16.4129 15.975C17.4604 17.579 18.2374 19.3442 18.7129 21.2C17.0399 22.3747 15.0446 23.0034 13.0004 23ZM20.7629 19.25C20.22 17.5963 19.4637 16.0204 18.5129 14.5625L18.2504 14.25C19.7038 13.4414 21.3372 13.0116 23.0004 13C22.988 15.2773 22.1986 17.4822 20.7629 19.25Z" fill="#222528"/>
</svg>
