<svg width="26" height="26" viewBox="0 0 26 26" fill="none" xmlns="http://www.w3.org/2000/svg">
<path d="M16.8725 13.7925L14.25 12.2788V6.75C14.25 6.41848 14.1183 6.10054 13.8839 5.86612C13.6495 5.6317 13.3315 5.5 13 5.5C12.6685 5.5 12.3505 5.6317 12.1161 5.86612C11.8817 6.10054 11.75 6.41848 11.75 6.75V13C11.75 13.2194 11.8078 13.435 11.9175 13.625C12.0272 13.815 12.185 13.9728 12.375 14.0825L15.6225 15.9575C15.7647 16.0409 15.922 16.0953 16.0854 16.1176C16.2487 16.14 16.4148 16.1298 16.5742 16.0876C16.7336 16.0455 16.883 15.9722 17.014 15.8721C17.1449 15.772 17.2548 15.6469 17.3372 15.5042C17.4196 15.3614 17.473 15.2037 17.4943 15.0403C17.5155 14.8768 17.5042 14.7107 17.461 14.5516C17.4178 14.3925 17.3436 14.2436 17.2426 14.1133C17.1416 13.983 17.0158 13.874 16.8725 13.7925ZM13 0.5C10.5277 0.5 8.11099 1.23311 6.05538 2.60663C3.99976 3.98015 2.39761 5.93238 1.45151 8.21646C0.505416 10.5005 0.257874 13.0139 0.74019 15.4386C1.2225 17.8634 2.41301 20.0907 4.16117 21.8388C5.90933 23.587 8.13661 24.7775 10.5614 25.2598C12.9861 25.7421 15.4995 25.4946 17.7836 24.5485C20.0676 23.6024 22.0199 22.0002 23.3934 19.9446C24.7669 17.889 25.5 15.4723 25.5 13C25.4964 9.68591 24.1782 6.5086 21.8348 4.16518C19.4914 1.82177 16.3141 0.503639 13 0.5ZM13 23C11.0222 23 9.08879 22.4135 7.4443 21.3147C5.79981 20.2159 4.51809 18.6541 3.76121 16.8268C3.00433 14.9996 2.8063 12.9889 3.19215 11.0491C3.57801 9.10929 4.53041 7.32746 5.92894 5.92893C7.32746 4.53041 9.10929 3.578 11.0491 3.19215C12.9889 2.8063 14.9996 3.00433 16.8268 3.7612C18.6541 4.51808 20.2159 5.79981 21.3147 7.4443C22.4135 9.08879 23 11.0222 23 13C22.9967 15.6511 21.9421 18.1928 20.0674 20.0674C18.1928 21.9421 15.6512 22.9967 13 23Z" fill="#222528"/>
</svg>
