<svg width="24" height="28" viewBox="0 0 24 28" fill="none" xmlns="http://www.w3.org/2000/svg">
<path d="M7.58533 9.4937L7.58283 9.49495L7.57908 9.49745L7.58533 9.4937ZM20.0278 9.25995C19.9409 9.17605 19.8444 9.10263 19.7403 9.0412C19.593 8.95447 19.4295 8.89888 19.2599 8.87786C19.0902 8.85684 18.9181 8.87084 18.754 8.91899C18.59 8.96714 18.4376 9.04843 18.3063 9.15781C18.1749 9.2672 18.0674 9.40236 17.9903 9.55495C17.5598 10.4036 16.966 11.1589 16.2428 11.7774C16.3537 11.1544 16.4098 10.5228 16.4103 9.88995C16.4127 7.96512 15.905 6.07404 14.9389 4.40923C13.9728 2.74443 12.5827 1.36537 10.9103 0.412451C10.726 0.307737 10.5181 0.251607 10.3062 0.249339C10.0942 0.247071 9.88518 0.298738 9.69869 0.399484C9.5122 0.500231 9.35439 0.646746 9.24009 0.825258C9.1258 1.00377 9.05878 1.20841 9.04533 1.41995C8.97534 2.60508 8.6655 3.76366 8.13458 4.82551C7.60365 5.88737 6.86269 6.83039 5.95658 7.59745L5.66908 7.8312C4.72109 8.46901 3.88202 9.25533 3.18408 10.16C2.09942 11.5263 1.34806 13.1267 0.989598 14.834C0.631132 16.5413 0.675418 18.3087 1.11894 19.996C1.56247 21.6832 2.39303 23.2439 3.54476 24.5543C4.69649 25.8646 6.1377 26.8886 7.75408 27.545C7.94385 27.6222 8.1497 27.6516 8.35351 27.6306C8.55733 27.6096 8.75285 27.5388 8.92287 27.4245C9.09289 27.3101 9.2322 27.1557 9.32854 26.9749C9.42488 26.7941 9.47528 26.5923 9.47533 26.3874C9.47429 26.255 9.45322 26.1236 9.41283 25.9974C9.13316 24.9463 9.0526 23.852 9.17533 22.7712C10.3584 25.0019 12.2573 26.77 14.5666 27.7912C14.8483 27.9172 15.1668 27.9341 15.4603 27.8387C17.2847 27.2498 18.9281 26.2042 20.2346 24.8012C21.541 23.3983 22.4671 21.6846 22.9248 19.823C23.3824 17.9614 23.3565 16.0136 22.8495 14.1649C22.3425 12.3161 21.3711 10.6276 20.0278 9.25995ZM15.1466 25.2987C14.0569 24.7466 13.0957 23.9713 12.3254 23.0233C11.555 22.0753 10.9928 20.9758 10.6753 19.7962C10.5783 19.399 10.5031 18.9967 10.4503 18.5912C10.4148 18.333 10.2994 18.0924 10.1203 17.903C9.9412 17.7136 9.7074 17.5849 9.45158 17.5349C9.37292 17.5197 9.29296 17.5121 9.21283 17.5124C8.9932 17.5122 8.77739 17.5699 8.58714 17.6796C8.39688 17.7893 8.23889 17.9472 8.12908 18.1374C7.09214 19.9265 6.57079 21.9678 6.62283 24.035C5.71052 23.3258 4.94805 22.4427 4.3796 21.4367C3.81115 20.4307 3.44803 19.3219 3.31129 18.1745C3.17456 17.0271 3.26692 15.864 3.58304 14.7526C3.89915 13.6412 4.43272 12.6036 5.15283 11.6999C5.6996 10.9897 6.35919 10.3741 7.10533 9.87745C7.13798 9.85651 7.16929 9.83355 7.19908 9.8087C7.19908 9.8087 7.56908 9.50245 7.58158 9.4962C9.36308 7.99001 10.6303 5.96553 11.2066 3.70495C12.5684 4.96416 13.4763 6.63777 13.7893 8.46591C14.1024 10.294 13.8031 12.1744 12.9378 13.8149C12.8233 14.0339 12.7763 14.2819 12.8027 14.5276C12.829 14.7733 12.9276 15.0057 13.086 15.1953C13.2444 15.385 13.4554 15.5235 13.6925 15.5933C13.9295 15.6631 14.1819 15.661 14.4178 15.5875C16.3325 14.987 18.0172 13.8144 19.2453 12.2274C19.9837 13.3177 20.4665 14.5606 20.6577 15.8635C20.8489 17.1663 20.7435 18.4955 20.3495 19.7519C19.9555 21.0084 19.2831 22.1597 18.3822 23.1201C17.4813 24.0805 16.3753 24.8252 15.1466 25.2987Z" fill="black"/>
</svg>
