<svg width="26" height="24" viewBox="0 0 26 24" fill="none" xmlns="http://www.w3.org/2000/svg">
<path d="M23.2003 3.24996C21.8753 1.92147 20.1189 1.11064 18.2483 0.963925C16.3777 0.817213 14.5163 1.34429 13.0003 2.44996C11.4099 1.26701 9.43033 0.730602 7.46024 0.948759C5.49016 1.16692 3.67589 2.12343 2.38281 3.62569C1.08973 5.12795 0.413872 7.06436 0.491346 9.04498C0.568819 11.0256 1.39387 12.9033 2.80034 14.3L10.5628 22.075C11.2129 22.7147 12.0883 23.0732 13.0003 23.0732C13.9124 23.0732 14.7878 22.7147 15.4378 22.075L23.2003 14.3C24.6598 12.8315 25.479 10.8453 25.479 8.77496C25.479 6.70462 24.6598 4.71838 23.2003 3.24996ZM21.4378 12.575L13.6753 20.3375C13.587 20.4267 13.4819 20.4975 13.366 20.5458C13.2502 20.5941 13.1259 20.619 13.0003 20.619C12.8748 20.619 12.7505 20.5941 12.6347 20.5458C12.5188 20.4975 12.4137 20.4267 12.3253 20.3375L4.56284 12.5375C3.58254 11.5354 3.03361 10.1893 3.03361 8.78746C3.03361 7.38563 3.58254 6.03953 4.56284 5.03746C5.56179 4.0512 6.90906 3.49817 8.31284 3.49817C9.71663 3.49817 11.0639 4.0512 12.0628 5.03746C12.179 5.15462 12.3173 5.24762 12.4696 5.31108C12.6219 5.37454 12.7853 5.40721 12.9503 5.40721C13.1154 5.40721 13.2787 5.37454 13.4311 5.31108C13.5834 5.24762 13.7216 5.15462 13.8378 5.03746C14.8368 4.0512 16.1841 3.49817 17.5878 3.49817C18.9916 3.49817 20.3389 4.0512 21.3378 5.03746C22.3316 6.0264 22.8986 7.3652 22.9173 8.76707C22.936 10.1689 22.4049 11.5224 21.4378 12.5375V12.575Z" fill="#222528"/>
</svg>
