<svg width="26" height="26" viewBox="0 0 26 26" fill="none" xmlns="http://www.w3.org/2000/svg">
<path d="M22.3003 14.25C22.0253 14.25 21.7378 14.1625 21.4627 14.1C20.9059 13.9772 20.3586 13.8143 19.8252 13.6125C19.2454 13.4015 18.6079 13.4124 18.0356 13.6432C17.4633 13.874 16.9966 14.3082 16.7252 14.8625L16.4502 15.425C15.2328 14.7477 14.114 13.9065 13.1252 12.925C12.1437 11.9362 11.3025 10.8175 10.6252 9.59996L11.1502 9.24996C11.7045 8.9786 12.1387 8.51187 12.3695 7.93957C12.6003 7.36727 12.6112 6.72985 12.4002 6.14996C12.2018 5.61548 12.0389 5.06845 11.9127 4.51246C11.8502 4.23746 11.8002 3.94996 11.7627 3.66246C11.611 2.78198 11.1498 1.98463 10.4623 1.41401C9.77477 0.843378 8.90612 0.536968 8.01275 0.549957H4.26275C3.72404 0.544899 3.19056 0.655974 2.69864 0.87562C2.20671 1.09527 1.76789 1.41833 1.41204 1.82281C1.05619 2.22729 0.791666 2.7037 0.636483 3.2196C0.4813 3.7355 0.439097 4.27878 0.512748 4.81246C1.17867 10.0492 3.57028 14.9148 7.30981 18.6408C11.0493 22.3667 15.9236 24.7406 21.1628 25.3875H21.6377C22.5595 25.3888 23.4495 25.0506 24.1378 24.4375C24.5332 24.0838 24.8491 23.6502 25.0646 23.1654C25.2801 22.6805 25.3902 22.1555 25.3877 21.625V17.875C25.3724 17.0067 25.0563 16.1706 24.4932 15.5095C23.9301 14.8484 23.155 14.4032 22.3003 14.25ZM22.9252 21.75C22.925 21.9274 22.887 22.1028 22.8137 22.2645C22.7404 22.4261 22.6336 22.5703 22.5002 22.6875C22.3606 22.808 22.1973 22.8981 22.0208 22.9519C21.8442 23.0058 21.6584 23.0221 21.4753 23C16.7939 22.3997 12.4455 20.2581 9.11614 16.9128C5.78674 13.5676 3.66576 9.20913 3.08775 4.52496C3.06785 4.34185 3.08529 4.15662 3.139 3.98045C3.19271 3.80427 3.28159 3.64082 3.40025 3.49996C3.51739 3.36662 3.66157 3.25976 3.82322 3.18648C3.98487 3.1132 4.16027 3.07518 4.33775 3.07496H8.08775C8.37843 3.06849 8.66228 3.16356 8.89043 3.3438C9.11858 3.52403 9.27676 3.77817 9.33775 4.06246C9.38775 4.40412 9.45025 4.74162 9.52525 5.07496C9.66965 5.73389 9.86182 6.38143 10.1002 7.01246L8.35025 7.82496C8.20062 7.89361 8.06603 7.99114 7.9542 8.11195C7.84236 8.23276 7.7555 8.37447 7.69859 8.52895C7.64168 8.68342 7.61584 8.84762 7.62256 9.01211C7.62928 9.1766 7.66842 9.33814 7.73775 9.48746C9.53675 13.3409 12.6343 16.4385 16.4877 18.2375C16.7921 18.3625 17.1334 18.3625 17.4377 18.2375C17.5936 18.1817 17.7369 18.0955 17.8592 17.9839C17.9815 17.8724 18.0805 17.7376 18.1503 17.5875L18.9252 15.8375C19.5715 16.0686 20.231 16.2606 20.9002 16.4125C21.2336 16.4875 21.5711 16.55 21.9127 16.6C22.197 16.6609 22.4512 16.8191 22.6314 17.0473C22.8116 17.2754 22.9067 17.5593 22.9002 17.85L22.9252 21.75Z" fill="#222528"/>
</svg>
