<svg width="24" height="24" viewBox="0 0 24 24" fill="none" xmlns="http://www.w3.org/2000/svg">
<g clip-path="url(#clip0_101_225)">
<path d="M12 22C17.5228 22 22 17.5228 22 12C22 6.47715 17.5228 2 12 2C6.47715 2 2 6.47715 2 12C2 17.5228 6.47715 22 12 22Z" stroke="#222528" stroke-width="2" stroke-linecap="round" stroke-linejoin="round"/>
<path d="M9.08984 9.00008C9.32495 8.33175 9.789 7.76819 10.3998 7.40921C11.0106 7.05024 11.7287 6.91902 12.427 7.03879C13.1253 7.15857 13.7587 7.52161 14.2149 8.06361C14.6712 8.60561 14.9209 9.2916 14.9198 10.0001C14.9198 12.0001 11.9198 13.0001 11.9198 13.0001" stroke="#222528" stroke-width="2" stroke-linecap="round" stroke-linejoin="round"/>
<path d="M12 16V16.5" stroke="#222528" stroke-width="2" stroke-linecap="round" stroke-linejoin="round"/>
<path fill-rule="evenodd" clip-rule="evenodd" d="M12 3C7.02944 3 3 7.02944 3 12C3 16.9706 7.02944 21 12 21C16.9706 21 21 16.9706 21 12C21 7.02944 16.9706 3 12 3ZM1 12C1 5.92487 5.92487 1 12 1C18.0751 1 23 5.92487 23 12C23 18.0751 18.0751 23 12 23C5.92487 23 1 18.0751 1 12Z" fill="#222528"/>
<path fill-rule="evenodd" clip-rule="evenodd" d="M12.2582 8.0244C11.7927 7.94455 11.314 8.03203 10.9068 8.27135C10.4996 8.51066 10.1902 8.88637 10.0335 9.33193C9.85018 9.85292 9.27926 10.1267 8.75827 9.94342C8.23728 9.76015 7.96351 9.18923 8.14678 8.66824C8.46025 7.77713 9.07898 7.02572 9.89339 6.54708C10.7078 6.06845 11.6653 5.89349 12.5963 6.05319C13.5274 6.21289 14.3719 6.69694 14.9802 7.41961C15.5884 8.14213 15.9214 9.05656 15.9201 10.001C15.9197 11.5314 14.7851 12.542 13.9748 13.0821C13.5392 13.3726 13.1107 13.5861 12.795 13.7264C12.6358 13.7972 12.5016 13.8509 12.405 13.8877C12.3566 13.9061 12.3174 13.9204 12.2888 13.9306L12.2541 13.9427L12.243 13.9465L12.2391 13.9478L12.2376 13.9483C12.2373 13.9484 12.2363 13.9488 11.9201 13.0001L12.2363 13.9488C11.7124 14.1234 11.1461 13.8403 10.9714 13.3163C10.7969 12.7927 11.0796 12.2268 11.6028 12.0517L11.6016 12.0522C11.6017 12.0521 11.6018 12.0521 11.6028 12.0517L11.6188 12.0462C11.6342 12.0407 11.6594 12.0315 11.693 12.0187C11.7605 11.993 11.8607 11.953 11.9827 11.8988C12.2296 11.7891 12.551 11.6276 12.8654 11.418C13.555 10.9583 13.9201 10.4692 13.9201 10.0001L13.9201 9.99859C13.9208 9.52628 13.7543 9.06895 13.4502 8.70761C13.146 8.34628 12.7238 8.10425 12.2582 8.0244Z" fill="#222528"/>
<path fill-rule="evenodd" clip-rule="evenodd" d="M12 15C12.5523 15 13 15.4477 13 16V16.5C13 17.0523 12.5523 17.5 12 17.5C11.4477 17.5 11 17.0523 11 16.5V16C11 15.4477 11.4477 15 12 15Z" fill="#222528"/>
</g>
<defs>
<clipPath id="clip0_101_225">
<rect width="24" height="24" fill="white"/>
</clipPath>
</defs>
</svg>
