<svg width="21" height="28" viewBox="0 0 21 28" fill="none" xmlns="http://www.w3.org/2000/svg">
<path d="M19.7405 25.2524H18.4905V23.1687C18.4865 22.4532 18.3596 21.7437 18.1155 21.0712C18.1022 21.0355 18.0872 21.0005 18.0705 20.9662C17.8683 20.4141 17.5888 19.8936 17.2405 19.4199L15.4905 17.0862C15.005 16.4359 14.742 15.6465 14.7405 14.8349V13.5724C14.7436 12.5791 15.1379 11.6271 15.838 10.9224L16.6593 10.0999C17.6142 9.14015 18.2277 7.89341 18.4055 6.55119C18.4055 6.53494 18.4155 6.51994 18.4155 6.50119L18.4118 6.48494C18.4552 6.21899 18.4816 5.95052 18.4905 5.68119V2.75244H19.7405C20.072 2.75244 20.39 2.62075 20.6244 2.38632C20.8588 2.1519 20.9905 1.83396 20.9905 1.50244C20.9905 1.17092 20.8588 0.852978 20.6244 0.618558C20.39 0.384138 20.072 0.252441 19.7405 0.252441H2.24051C1.90899 0.252441 1.59104 0.384138 1.35662 0.618558C1.1222 0.852978 0.990508 1.17092 0.990508 1.50244C0.990508 1.83396 1.1222 2.1519 1.35662 2.38632C1.59104 2.62075 1.90899 2.75244 2.24051 2.75244H3.49051V5.68119C3.49947 5.95052 3.52577 6.21899 3.56926 6.48494L3.56551 6.50244C3.56551 6.51994 3.57426 6.53494 3.57551 6.55244C3.75323 7.89406 4.36625 9.1403 5.32051 10.0999L6.14176 10.9212C6.84264 11.6259 7.23743 12.5785 7.24051 13.5724V14.8349C7.23854 15.646 6.97557 16.4349 6.49051 17.0849L4.74051 19.4199C4.3918 19.8935 4.11194 20.4141 3.90926 20.9662C3.89263 21.0005 3.87761 21.0355 3.86426 21.0712C3.62019 21.7438 3.49335 22.4532 3.48926 23.1687V25.2524H2.23926C1.90774 25.2524 1.58979 25.3841 1.35537 25.6186C1.12095 25.853 0.989258 26.1709 0.989258 26.5024C0.989258 26.834 1.12095 27.1519 1.35537 27.3863C1.58979 27.6207 1.90774 27.7524 2.23926 27.7524H19.7393C20.0708 27.7524 20.3887 27.6207 20.6231 27.3863C20.8576 27.1519 20.9893 26.834 20.9893 26.5024C20.9893 26.1709 20.8576 25.853 20.6231 25.6186C20.3887 25.3841 20.0708 25.2524 19.7393 25.2524H19.7405ZM5.99051 5.25244V2.75244H15.9905V5.25244H5.99051ZM7.08801 8.33244C6.91182 8.15545 6.75393 7.96113 6.61676 7.75244H15.363C15.2258 7.96113 15.0679 8.15545 14.8918 8.33244L14.0705 9.15369C13.0954 10.123 12.4701 11.3889 12.293 12.7524H9.68801C9.51094 11.3889 8.88565 10.123 7.91051 9.15369L7.08801 8.33244ZM8.49051 18.5849C9.21365 17.6158 9.6424 16.4588 9.72551 15.2524H12.2543C12.3375 16.459 12.7667 17.616 13.4905 18.5849L14.7405 20.2524H7.24051L8.49051 18.5849ZM15.9905 25.2524H5.99051V23.1687C5.9939 23.0294 6.00516 22.8904 6.02426 22.7524H15.9555C15.975 22.8904 15.9867 23.0294 15.9905 23.1687V25.2524Z" fill="#222528"/>
</svg>
