<svg width="26" height="26" viewBox="0 0 26 26" fill="none" xmlns="http://www.w3.org/2000/svg">
<path d="M16.7498 10.5H12.9998V6.75C12.9998 6.41848 12.8681 6.10054 12.6336 5.86612C12.3992 5.6317 12.0813 5.5 11.7498 5.5C11.4182 5.5 11.1003 5.6317 10.8659 5.86612C10.6315 6.10054 10.4998 6.41848 10.4998 6.75V10.5H6.74976C6.41824 10.5 6.1003 10.6317 5.86588 10.8661C5.63145 11.1005 5.49976 11.4185 5.49976 11.75C5.49976 12.0815 5.63145 12.3995 5.86588 12.6339C6.1003 12.8683 6.41824 13 6.74976 13H10.4998V16.75C10.4998 17.0815 10.6315 17.3995 10.8659 17.6339C11.1003 17.8683 11.4182 18 11.7498 18C12.0813 18 12.3992 17.8683 12.6336 17.6339C12.8681 17.3995 12.9998 17.0815 12.9998 16.75V13H16.7498C17.0813 13 17.3992 12.8683 17.6336 12.6339C17.8681 12.3995 17.9998 12.0815 17.9998 11.75C17.9998 11.4185 17.8681 11.1005 17.6336 10.8661C17.3992 10.6317 17.0813 10.5 16.7498 10.5ZM25.1373 23.3625L20.4998 18.7625C22.2999 16.518 23.1716 13.6691 22.9358 10.8016C22.6999 7.93413 21.3743 5.26598 19.2317 3.34581C17.089 1.42564 14.292 0.39939 11.4159 0.478091C8.53981 0.556791 5.80316 1.73445 3.76869 3.76893C1.73421 5.8034 0.556547 8.54005 0.477847 11.4162C0.399146 14.2923 1.42539 17.0892 3.34556 19.2319C5.26574 21.3746 7.93389 22.7001 10.8014 22.936C13.6689 23.1719 16.5178 22.3001 18.7623 20.5L23.3623 25.1C23.4785 25.2172 23.6167 25.3102 23.769 25.3736C23.9214 25.4371 24.0847 25.4697 24.2498 25.4697C24.4148 25.4697 24.5782 25.4371 24.7305 25.3736C24.8828 25.3102 25.0211 25.2172 25.1373 25.1C25.3626 24.8669 25.4885 24.5554 25.4885 24.2313C25.4885 23.9071 25.3626 23.5956 25.1373 23.3625ZM11.7498 20.5C10.0192 20.5 8.32745 19.9868 6.88852 19.0254C5.44959 18.0639 4.32808 16.6973 3.66581 15.0985C3.00355 13.4996 2.83027 11.7403 3.16789 10.043C3.50551 8.34563 4.33886 6.78653 5.56257 5.56282C6.78628 4.33911 8.34539 3.50575 10.0427 3.16813C11.7401 2.83051 13.4994 3.00379 15.0982 3.66606C16.6971 4.32832 18.0637 5.44983 19.0251 6.88876C19.9866 8.32769 20.4998 10.0194 20.4998 11.75C20.4998 14.0706 19.5779 16.2962 17.9369 17.9372C16.296 19.5781 14.0704 20.5 11.7498 20.5Z" fill="#222528"/>
</svg>
