<svg width="26" height="26" viewBox="0 0 26 26" fill="none" xmlns="http://www.w3.org/2000/svg">
<path d="M9.25001 11.75C9.49723 11.75 9.73891 11.6767 9.94447 11.5393C10.15 11.402 10.3102 11.2068 10.4049 10.9784C10.4995 10.7499 10.5242 10.4986 10.476 10.2561C10.4278 10.0137 10.3087 9.79093 10.1339 9.61612C9.95907 9.4413 9.73635 9.32225 9.49387 9.27402C9.25139 9.22579 9.00006 9.25054 8.77165 9.34515C8.54324 9.43976 8.34802 9.59998 8.21067 9.80554C8.07332 10.0111 8.00001 10.2528 8.00001 10.5C8.00001 10.8315 8.1317 11.1495 8.36612 11.3839C8.60054 11.6183 8.91849 11.75 9.25001 11.75ZM13 0.5C10.5277 0.5 8.11099 1.23311 6.05538 2.60663C3.99976 3.98015 2.39761 5.93238 1.45151 8.21646C0.505416 10.5005 0.257874 13.0139 0.74019 15.4386C1.2225 17.8634 2.41301 20.0907 4.16117 21.8388C5.90933 23.587 8.13662 24.7775 10.5614 25.2598C12.9861 25.7421 15.4995 25.4946 17.7836 24.5485C20.0676 23.6024 22.0199 22.0002 23.3934 19.9446C24.7669 17.889 25.5 15.4723 25.5 13C25.5 11.3585 25.1767 9.73303 24.5485 8.21646C23.9203 6.69989 22.9996 5.3219 21.8388 4.16117C20.6781 3.00043 19.3001 2.07969 17.7836 1.45151C16.267 0.823322 14.6415 0.5 13 0.5ZM13 23C11.0222 23 9.0888 22.4135 7.4443 21.3147C5.79981 20.2159 4.51809 18.6541 3.76121 16.8268C3.00433 14.9996 2.8063 12.9889 3.19215 11.0491C3.57801 9.10929 4.53041 7.32746 5.92894 5.92893C7.32746 4.53041 9.10929 3.578 11.0491 3.19215C12.9889 2.8063 14.9996 3.00433 16.8268 3.7612C18.6541 4.51808 20.2159 5.79981 21.3147 7.4443C22.4135 9.08879 23 11.0222 23 13C23 15.6522 21.9464 18.1957 20.0711 20.0711C18.1957 21.9464 15.6522 23 13 23ZM16.75 14.25H9.25001C8.91849 14.25 8.60054 14.3817 8.36612 14.6161C8.1317 14.8505 8.00001 15.1685 8.00001 15.5C8.00001 16.8261 8.52679 18.0979 9.46447 19.0355C10.4022 19.9732 11.6739 20.5 13 20.5C14.3261 20.5 15.5979 19.9732 16.5355 19.0355C17.4732 18.0979 18 16.8261 18 15.5C18 15.1685 17.8683 14.8505 17.6339 14.6161C17.3995 14.3817 17.0815 14.25 16.75 14.25ZM13 18C12.5616 17.9995 12.131 17.8838 11.7515 17.6644C11.3719 17.445 11.0567 17.1297 10.8375 16.75H15.1625C14.9433 17.1297 14.6281 17.445 14.2486 17.6644C13.869 17.8838 13.4384 17.9995 13 18ZM16.75 9.25C16.5028 9.25 16.2611 9.32331 16.0555 9.46066C15.85 9.59801 15.6898 9.79324 15.5952 10.0216C15.5005 10.2501 15.4758 10.5014 15.524 10.7439C15.5723 10.9863 15.6913 11.2091 15.8661 11.3839C16.0409 11.5587 16.2637 11.6778 16.5061 11.726C16.7486 11.7742 17 11.7495 17.2284 11.6549C17.4568 11.5602 17.652 11.4 17.7893 11.1945C17.9267 10.9889 18 10.7472 18 10.5C18 10.1685 17.8683 9.85054 17.6339 9.61612C17.3995 9.3817 17.0815 9.25 16.75 9.25Z" fill="#222528"/>
</svg>
