<svg width="26" height="26" viewBox="0 0 26 26" fill="none" xmlns="http://www.w3.org/2000/svg">
<path d="M12.1125 17.6375C12.2873 17.8138 12.5107 17.934 12.7541 17.9828C12.9976 18.0317 13.25 18.0069 13.4794 17.9117C13.7087 17.8165 13.9044 17.6552 14.0417 17.4483C14.1789 17.2414 14.2514 16.9983 14.25 16.75C14.2454 16.419 14.1159 16.102 13.8875 15.8625C13.7117 15.6891 13.4885 15.5716 13.246 15.5248C13.0035 15.4781 12.7526 15.5043 12.525 15.6C12.3716 15.6595 12.2314 15.7487 12.1125 15.8625C11.8841 16.102 11.7546 16.419 11.75 16.75C11.749 16.9145 11.7806 17.0776 11.8428 17.2299C11.905 17.3822 11.9966 17.5207 12.1125 17.6375ZM22.8875 17.3875H17.225C16.8935 17.3875 16.5755 17.5192 16.3411 17.7536C16.1067 17.988 15.975 18.306 15.975 18.6375C15.975 18.969 16.1067 19.287 16.3411 19.5214C16.5755 19.7558 16.8935 19.8875 17.225 19.8875H20.225C18.8462 21.3284 17.068 22.3241 15.119 22.7467C13.1699 23.1693 11.139 22.9995 9.28722 22.2591C7.43543 21.5186 5.84734 20.2414 4.72699 18.5915C3.60664 16.9416 3.00522 14.9943 3 13C3 12.6685 2.8683 12.3505 2.63388 12.1161C2.39946 11.8817 2.08152 11.75 1.75 11.75C1.41848 11.75 1.10054 11.8817 0.866116 12.1161C0.631696 12.3505 0.5 12.6685 0.5 13C0.506608 15.441 1.22778 17.8266 2.5745 19.8625C3.92123 21.8984 5.83458 23.4954 8.07843 24.4565C10.3223 25.4176 12.7984 25.7007 15.2013 25.2708C17.6041 24.8409 19.8285 23.7169 21.6 22.0375V24.25C21.6 24.5815 21.7317 24.8995 21.9661 25.1339C22.2005 25.3683 22.5185 25.5 22.85 25.5C23.1815 25.5 23.4995 25.3683 23.7339 25.1339C23.9683 24.8995 24.1 24.5815 24.1 24.25V18.625C24.0969 18.302 23.9689 17.9928 23.7429 17.7621C23.5169 17.5314 23.2103 17.3972 22.8875 17.3875ZM13 0.5C9.79548 0.50914 6.71686 1.74864 4.4 3.9625V1.75C4.4 1.41848 4.2683 1.10054 4.03388 0.866116C3.79946 0.631696 3.48152 0.5 3.15 0.5C2.81848 0.5 2.50054 0.631696 2.26612 0.866116C2.0317 1.10054 1.9 1.41848 1.9 1.75V7.375C1.9 7.70652 2.0317 8.02446 2.26612 8.25888C2.50054 8.4933 2.81848 8.625 3.15 8.625H8.775C9.10652 8.625 9.42446 8.4933 9.65888 8.25888C9.8933 8.02446 10.025 7.70652 10.025 7.375C10.025 7.04348 9.8933 6.72554 9.65888 6.49112C9.42446 6.2567 9.10652 6.125 8.775 6.125H5.775C7.15308 4.68484 8.93011 3.68937 10.878 3.26639C12.8259 2.8434 14.8557 3.01218 16.707 3.75108C18.5583 4.48997 20.1465 5.76526 21.2678 7.41325C22.3891 9.06124 22.9923 11.0067 23 13C23 13.3315 23.1317 13.6495 23.3661 13.8839C23.6005 14.1183 23.9185 14.25 24.25 14.25C24.5815 14.25 24.8995 14.1183 25.1339 13.8839C25.3683 13.6495 25.5 13.3315 25.5 13C25.5 11.3585 25.1767 9.73303 24.5485 8.21646C23.9203 6.69989 22.9996 5.3219 21.8388 4.16117C20.6781 3.00043 19.3001 2.07969 17.7835 1.45151C16.267 0.823322 14.6415 0.5 13 0.5ZM13 14.25C13.3315 14.25 13.6495 14.1183 13.8839 13.8839C14.1183 13.6495 14.25 13.3315 14.25 13V9.25C14.25 8.91848 14.1183 8.60054 13.8839 8.36612C13.6495 8.1317 13.3315 8 13 8C12.6685 8 12.3505 8.1317 12.1161 8.36612C11.8817 8.60054 11.75 8.91848 11.75 9.25V13C11.75 13.3315 11.8817 13.6495 12.1161 13.8839C12.3505 14.1183 12.6685 14.25 13 14.25Z" fill="#222528"/>
</svg>
