<svg width="26" height="26" viewBox="0 0 26 26" fill="none" xmlns="http://www.w3.org/2000/svg">
<path d="M13.0001 0.5C9.79552 0.50914 6.71689 1.74864 4.40002 3.96248V1.74999C4.40002 1.41848 4.26832 1.10053 4.0339 0.866115C3.79948 0.631695 3.48153 0.5 3.15001 0.5C2.81849 0.5 2.50055 0.631695 2.26612 0.866115C2.0317 1.10053 1.90001 1.41848 1.90001 1.74999V7.37497C1.90001 7.70649 2.0317 8.02443 2.26612 8.25885C2.50055 8.49327 2.81849 8.62496 3.15001 8.62496H8.77503C9.10656 8.62496 9.4245 8.49327 9.65892 8.25885C9.89334 8.02443 10.025 7.70649 10.025 7.37497C10.025 7.04345 9.89334 6.72551 9.65892 6.49109C9.4245 6.25667 9.10656 6.12497 8.77503 6.12497H5.77502C7.38225 4.44543 9.52442 3.37831 11.8332 3.10708C14.142 2.83584 16.4732 3.37746 18.4259 4.63879C20.3786 5.90012 21.8309 7.80236 22.533 10.0184C23.2351 12.2345 23.1432 14.626 22.2731 16.7817C21.403 18.9373 19.809 20.7225 17.7653 21.8303C15.7215 22.938 13.3557 23.2992 11.0745 22.8516C8.79332 22.404 6.73936 21.1756 5.26576 19.3777C3.79216 17.5797 2.99099 15.3246 3.00001 12.9999C3.00001 12.6684 2.86831 12.3505 2.63389 12.1161C2.39947 11.8816 2.08153 11.7499 1.75001 11.7499C1.41848 11.7499 1.10054 11.8816 0.866118 12.1161C0.631697 12.3505 0.5 12.6684 0.5 12.9999C0.5 15.4722 1.23312 17.8889 2.60664 19.9445C3.98016 22.0001 5.9324 23.6023 8.21649 24.5484C10.5006 25.4945 13.0139 25.742 15.4387 25.2597C17.8635 24.7774 20.0908 23.5869 21.8389 21.8387C23.5871 20.0906 24.7776 17.8633 25.2599 15.4386C25.7422 13.0138 25.4947 10.5005 24.5486 8.21642C23.6025 5.93236 22.0003 3.98013 19.9447 2.60662C17.8891 1.23311 15.4723 0.5 13.0001 0.5ZM13.0001 7.99997C12.6685 7.99997 12.3506 8.13166 12.1162 8.36608C11.8817 8.6005 11.75 8.91844 11.75 9.24996V12.9999C11.75 13.3315 11.8817 13.6494 12.1162 13.8838C12.3506 14.1182 12.6685 14.2499 13.0001 14.2499H15.5001C15.8316 14.2499 16.1495 14.1182 16.3839 13.8838C16.6184 13.6494 16.7501 13.3315 16.7501 12.9999C16.7501 12.6684 16.6184 12.3505 16.3839 12.1161C16.1495 11.8816 15.8316 11.7499 15.5001 11.7499H14.2501V9.24996C14.2501 8.91844 14.1184 8.6005 13.8839 8.36608C13.6495 8.13166 13.3316 7.99997 13.0001 7.99997Z" fill="#222528"/>
</svg>
